<mxfile host="Electron" agent="Mozilla/5.0 (Windows NT 10.0; Win64; x64) AppleWebKit/537.36 (KHTML, like Gecko) draw.io/24.7.17 Chrome/128.0.6613.36 Electron/32.0.1 Safari/537.36" version="24.7.17" pages="4">
  <diagram name="Pagina-1" id="djBhFx8jJ0YVK1sliZRf">
    <mxGraphModel dx="3098" dy="1158" grid="1" gridSize="10" guides="1" tooltips="1" connect="1" arrows="1" fold="1" page="1" pageScale="1" pageWidth="1169" pageHeight="827" math="0" shadow="0">
      <root>
        <mxCell id="0" />
        <mxCell id="1" parent="0" />
        <mxCell id="mKl1IKBuFgSc5wh1EqZh-2" value="INSTRUCTION MEMORY&lt;div&gt;(rom.v)&lt;/div&gt;" style="whiteSpace=wrap;html=1;aspect=fixed;" parent="1" vertex="1">
          <mxGeometry x="210" y="215" width="170" height="170" as="geometry" />
        </mxCell>
        <mxCell id="mKl1IKBuFgSc5wh1EqZh-15" style="edgeStyle=orthogonalEdgeStyle;rounded=0;orthogonalLoop=1;jettySize=auto;html=1;exitX=1;exitY=0.3;exitDx=0;exitDy=0;exitPerimeter=0;entryX=0;entryY=0.25;entryDx=0;entryDy=0;" parent="1" source="mKl1IKBuFgSc5wh1EqZh-3" target="mKl1IKBuFgSc5wh1EqZh-6" edge="1">
          <mxGeometry relative="1" as="geometry" />
        </mxCell>
        <mxCell id="mKl1IKBuFgSc5wh1EqZh-16" style="edgeStyle=orthogonalEdgeStyle;rounded=0;orthogonalLoop=1;jettySize=auto;html=1;exitX=1;exitY=0.3;exitDx=0;exitDy=0;exitPerimeter=0;entryX=0.001;entryY=0.443;entryDx=0;entryDy=0;entryPerimeter=0;" parent="1" source="mKl1IKBuFgSc5wh1EqZh-3" target="mKl1IKBuFgSc5wh1EqZh-6" edge="1">
          <mxGeometry relative="1" as="geometry">
            <Array as="points">
              <mxPoint x="585" y="290" />
            </Array>
          </mxGeometry>
        </mxCell>
        <mxCell id="mKl1IKBuFgSc5wh1EqZh-3" value="" style="verticalLabelPosition=bottom;shadow=0;dashed=0;align=center;html=1;verticalAlign=top;shape=mxgraph.electrical.logic_gates.d_type_rs_flip-flop;fillStyle=auto;fillColor=#dae8fc;strokeColor=#6c8ebf;" parent="1" vertex="1">
          <mxGeometry x="420" y="260" width="80" height="100" as="geometry" />
        </mxCell>
        <mxCell id="mKl1IKBuFgSc5wh1EqZh-4" value="" style="verticalLabelPosition=bottom;shadow=0;dashed=0;align=center;html=1;verticalAlign=top;shape=mxgraph.electrical.logic_gates.d_type_rs_flip-flop;fillStyle=auto;fillColor=#dae8fc;strokeColor=#6c8ebf;" parent="1" vertex="1">
          <mxGeometry x="30" y="710" width="80" height="100" as="geometry" />
        </mxCell>
        <mxCell id="mKl1IKBuFgSc5wh1EqZh-5" value="pipeline reg" style="text;html=1;align=center;verticalAlign=middle;resizable=0;points=[];autosize=1;strokeColor=none;fillColor=none;" parent="1" vertex="1">
          <mxGeometry x="105" y="738" width="90" height="30" as="geometry" />
        </mxCell>
        <mxCell id="mKl1IKBuFgSc5wh1EqZh-6" value="REG FILE" style="whiteSpace=wrap;html=1;aspect=fixed;" parent="1" vertex="1">
          <mxGeometry x="585" y="215" width="170" height="170" as="geometry" />
        </mxCell>
        <mxCell id="mKl1IKBuFgSc5wh1EqZh-22" style="edgeStyle=orthogonalEdgeStyle;rounded=0;orthogonalLoop=1;jettySize=auto;html=1;exitX=0.5;exitY=1;exitDx=0;exitDy=0;exitPerimeter=0;entryX=0;entryY=0.5;entryDx=0;entryDy=0;" parent="1" source="mKl1IKBuFgSc5wh1EqZh-7" target="mKl1IKBuFgSc5wh1EqZh-21" edge="1">
          <mxGeometry relative="1" as="geometry" />
        </mxCell>
        <mxCell id="mKl1IKBuFgSc5wh1EqZh-7" value="ALU" style="shape=stencil(rZTvDoIgFMWfhq8OIZt9bFbvQUrJInBg/96+q5RTzFbU5tzuOd6fXDmCaGZLVnFEcInoChESYwx3qC9ezWzF89qJZ2YE20ruHFsbfeAXUdQPhlAlN6JuXLpGeAnPNBfNcq0UQIRWduD0fIAxoaAXXx0MR8S95vaoXYXI5gtE+jsiGSDiEAT2lhHNQiix9z2ieQhl4UGS1xCagTK1bTTbsvywN/qkinHXpLfThr8wOltI6SL1ZqiKNWEbGU/7qM+8N+3nu/8ESKF6AI/Q/RPfMNI/MLqm8FHmPxOSIYEGIGYBi8iltu8SAfpEKOCMm4pT2zbKY6u6c7EV7g==);whiteSpace=wrap;html=1;rotation=-90;" parent="1" vertex="1">
          <mxGeometry x="980" y="270" width="180" height="80" as="geometry" />
        </mxCell>
        <mxCell id="mKl1IKBuFgSc5wh1EqZh-8" value="MUX" style="shape=stencil(rZXhbsIgEMefhq+Gcpu6j6Zz74EVVyKDBjqdb++1tHWz0swCaZrc/Xs/esflIJC7kleCMFoSeCeMZZTiG+3znc1dJYraO0/cSr5TwiuutuYoznJfdwypS2Fl3aiwJXSD3zQP5IXRGiHSaPdH+aUjjEuNsfTHw7rtL521yLxN2MdsBItHQDziJR7xGo9YxiNW8Yh1POLteUSWoJwLwJWgRfvNb5BZf7PElaDbH2U1o8DjrNapsgp0DOToCY0ZyHe8OH5a863346igdjBWPBAGWSrlR+BEXhVvhuNI6OUvcxLB1p6qWA9QUgcBwwh/BjEEdZBVAgb8i1Eo46ZKif5ANfEyC51DGzY6yNbrL8DWcQU=);whiteSpace=wrap;html=1;" parent="1" vertex="1">
          <mxGeometry x="890" y="430" width="60" height="100" as="geometry" />
        </mxCell>
        <mxCell id="mKl1IKBuFgSc5wh1EqZh-9" style="edgeStyle=orthogonalEdgeStyle;rounded=0;orthogonalLoop=1;jettySize=auto;html=1;entryX=0.2;entryY=0;entryDx=0;entryDy=0;entryPerimeter=0;" parent="1" source="mKl1IKBuFgSc5wh1EqZh-8" target="mKl1IKBuFgSc5wh1EqZh-7" edge="1">
          <mxGeometry relative="1" as="geometry" />
        </mxCell>
        <mxCell id="mKl1IKBuFgSc5wh1EqZh-11" style="edgeStyle=orthogonalEdgeStyle;rounded=0;orthogonalLoop=1;jettySize=auto;html=1;exitX=1;exitY=0.25;exitDx=0;exitDy=0;entryX=0.8;entryY=0;entryDx=0;entryDy=0;entryPerimeter=0;" parent="1" source="mKl1IKBuFgSc5wh1EqZh-6" target="mKl1IKBuFgSc5wh1EqZh-7" edge="1">
          <mxGeometry relative="1" as="geometry" />
        </mxCell>
        <mxCell id="mKl1IKBuFgSc5wh1EqZh-12" style="edgeStyle=orthogonalEdgeStyle;rounded=0;orthogonalLoop=1;jettySize=auto;html=1;exitX=1;exitY=0.75;exitDx=0;exitDy=0;entryX=0;entryY=0.3;entryDx=0;entryDy=0;entryPerimeter=0;" parent="1" source="mKl1IKBuFgSc5wh1EqZh-6" target="mKl1IKBuFgSc5wh1EqZh-8" edge="1">
          <mxGeometry relative="1" as="geometry" />
        </mxCell>
        <mxCell id="mKl1IKBuFgSc5wh1EqZh-14" style="edgeStyle=orthogonalEdgeStyle;rounded=0;orthogonalLoop=1;jettySize=auto;html=1;exitX=1;exitY=0.3;exitDx=0;exitDy=0;exitPerimeter=0;" parent="1" source="mKl1IKBuFgSc5wh1EqZh-3" edge="1">
          <mxGeometry relative="1" as="geometry">
            <Array as="points">
              <mxPoint x="520" y="500" />
            </Array>
            <mxPoint x="830" y="500" as="targetPoint" />
          </mxGeometry>
        </mxCell>
        <mxCell id="mKl1IKBuFgSc5wh1EqZh-21" value="DATA MEMORY" style="whiteSpace=wrap;html=1;aspect=fixed;" parent="1" vertex="1">
          <mxGeometry x="1240" y="225" width="170" height="170" as="geometry" />
        </mxCell>
        <mxCell id="mKl1IKBuFgSc5wh1EqZh-24" value="" style="verticalLabelPosition=bottom;shadow=0;dashed=0;align=center;html=1;verticalAlign=top;shape=mxgraph.electrical.logic_gates.d_type_rs_flip-flop;fillStyle=auto;fillColor=#dae8fc;strokeColor=#6c8ebf;" parent="1" vertex="1">
          <mxGeometry x="1140" y="250" width="80" height="100" as="geometry" />
        </mxCell>
        <mxCell id="mKl1IKBuFgSc5wh1EqZh-25" value="" style="verticalLabelPosition=bottom;shadow=0;dashed=0;align=center;html=1;verticalAlign=top;shape=mxgraph.electrical.logic_gates.d_type_rs_flip-flop;fillStyle=auto;fillColor=#dae8fc;strokeColor=#6c8ebf;" parent="1" vertex="1">
          <mxGeometry x="1450" y="155" width="60" height="60" as="geometry" />
        </mxCell>
        <mxCell id="mKl1IKBuFgSc5wh1EqZh-29" style="edgeStyle=orthogonalEdgeStyle;rounded=0;orthogonalLoop=1;jettySize=auto;html=1;exitX=1;exitY=0.5;exitDx=0;exitDy=0;exitPerimeter=0;entryX=0.25;entryY=1;entryDx=0;entryDy=0;" parent="1" source="mKl1IKBuFgSc5wh1EqZh-26" target="mKl1IKBuFgSc5wh1EqZh-6" edge="1">
          <mxGeometry relative="1" as="geometry">
            <Array as="points">
              <mxPoint x="1690" y="250" />
              <mxPoint x="1690" y="570" />
              <mxPoint x="628" y="570" />
            </Array>
          </mxGeometry>
        </mxCell>
        <mxCell id="mKl1IKBuFgSc5wh1EqZh-26" value="MUX" style="shape=stencil(rZXhbsIgEMefhq+Gcpu6j6Zz74EVVyKDBjqdb++1tHWz0swCaZrc/Xs/esflIJC7kleCMFoSeCeMZZTiG+3znc1dJYraO0/cSr5TwiuutuYoznJfdwypS2Fl3aiwJXSD3zQP5IXRGiHSaPdH+aUjjEuNsfTHw7rtL521yLxN2MdsBItHQDziJR7xGo9YxiNW8Yh1POLteUSWoJwLwJWgRfvNb5BZf7PElaDbH2U1o8DjrNapsgp0DOToCY0ZyHe8OH5a863346igdjBWPBAGWSrlR+BEXhVvhuNI6OUvcxLB1p6qWA9QUgcBwwh/BjEEdZBVAgb8i1Eo46ZKif5ANfEyC51DGzY6yNbrL8DWcQU=);whiteSpace=wrap;html=1;" parent="1" vertex="1">
          <mxGeometry x="1610" y="200" width="60" height="100" as="geometry" />
        </mxCell>
        <mxCell id="mKl1IKBuFgSc5wh1EqZh-27" style="edgeStyle=orthogonalEdgeStyle;rounded=0;orthogonalLoop=1;jettySize=auto;html=1;exitX=1;exitY=0.5;exitDx=0;exitDy=0;entryX=0;entryY=0.8;entryDx=0;entryDy=0;entryPerimeter=0;" parent="1" source="mKl1IKBuFgSc5wh1EqZh-21" target="mKl1IKBuFgSc5wh1EqZh-26" edge="1">
          <mxGeometry relative="1" as="geometry" />
        </mxCell>
        <mxCell id="mKl1IKBuFgSc5wh1EqZh-28" value="" style="endArrow=classic;html=1;rounded=0;entryX=0;entryY=0.2;entryDx=0;entryDy=0;entryPerimeter=0;" parent="1" target="mKl1IKBuFgSc5wh1EqZh-26" edge="1">
          <mxGeometry width="50" height="50" relative="1" as="geometry">
            <mxPoint x="1220" y="310" as="sourcePoint" />
            <mxPoint x="1380" y="200" as="targetPoint" />
            <Array as="points">
              <mxPoint x="1220" y="180" />
              <mxPoint x="1470" y="180" />
            </Array>
          </mxGeometry>
        </mxCell>
        <mxCell id="Pju4oIdgMfnVY8y6IHaK-3" value="" style="edgeStyle=orthogonalEdgeStyle;rounded=0;orthogonalLoop=1;jettySize=auto;html=1;" parent="1" source="Pju4oIdgMfnVY8y6IHaK-1" target="mKl1IKBuFgSc5wh1EqZh-2" edge="1">
          <mxGeometry relative="1" as="geometry" />
        </mxCell>
        <mxCell id="4ZmFrHPsVRY0wmb2Naa1-5" value="" style="edgeStyle=orthogonalEdgeStyle;rounded=0;orthogonalLoop=1;jettySize=auto;html=1;" parent="1" source="Pju4oIdgMfnVY8y6IHaK-1" target="4ZmFrHPsVRY0wmb2Naa1-4" edge="1">
          <mxGeometry relative="1" as="geometry" />
        </mxCell>
        <mxCell id="Pju4oIdgMfnVY8y6IHaK-1" value="PC" style="whiteSpace=wrap;html=1;" parent="1" vertex="1">
          <mxGeometry x="-110" y="220" width="120" height="60" as="geometry" />
        </mxCell>
        <mxCell id="Pju4oIdgMfnVY8y6IHaK-4" value="Control has the controlling FSM:&lt;div&gt;1. Fetch -&amp;gt; rd from rom.v&lt;/div&gt;&lt;div&gt;2. Decode -&amp;gt; parse rdata, read from regfile, activate muxes&lt;/div&gt;&lt;div&gt;3. Execute -&amp;gt; Alu cycle&lt;/div&gt;&lt;div&gt;4. Memory Access, rd/wr in RAM&lt;/div&gt;&lt;div&gt;5. Write Back -&amp;gt; wr in regfile the wdata, set PCinc&lt;/div&gt;" style="text;html=1;align=center;verticalAlign=middle;resizable=0;points=[];autosize=1;strokeColor=none;fillColor=none;" parent="1" vertex="1">
          <mxGeometry x="295" y="640" width="340" height="100" as="geometry" />
        </mxCell>
        <mxCell id="4ZmFrHPsVRY0wmb2Naa1-1" value="ASSUMPTION:&lt;div&gt;* ram.v is a cache RAM, 1 cycle for accessing&lt;/div&gt;" style="text;html=1;align=center;verticalAlign=middle;resizable=0;points=[];autosize=1;strokeColor=none;fillColor=none;" parent="1" vertex="1">
          <mxGeometry x="645" y="713" width="270" height="40" as="geometry" />
        </mxCell>
        <mxCell id="4ZmFrHPsVRY0wmb2Naa1-2" value="OP2_MUX" style="text;html=1;align=center;verticalAlign=middle;resizable=0;points=[];autosize=1;strokeColor=none;fillColor=none;" parent="1" vertex="1">
          <mxGeometry x="910" y="508" width="80" height="30" as="geometry" />
        </mxCell>
        <mxCell id="4ZmFrHPsVRY0wmb2Naa1-3" value="+, -, &amp;gt;, ==, &amp;gt;&amp;gt;, &amp;lt;&amp;lt;" style="text;html=1;align=center;verticalAlign=middle;resizable=0;points=[];autosize=1;strokeColor=none;fillColor=none;" parent="1" vertex="1">
          <mxGeometry x="1040" y="380" width="120" height="30" as="geometry" />
        </mxCell>
        <mxCell id="4ZmFrHPsVRY0wmb2Naa1-4" value="+" style="whiteSpace=wrap;html=1;" parent="1" vertex="1">
          <mxGeometry x="-60" y="350" width="20" height="20" as="geometry" />
        </mxCell>
        <mxCell id="4ZmFrHPsVRY0wmb2Naa1-6" value="2" style="whiteSpace=wrap;html=1;" parent="1" vertex="1">
          <mxGeometry x="170" y="320" width="20" height="20" as="geometry" />
        </mxCell>
        <mxCell id="4ZmFrHPsVRY0wmb2Naa1-14" style="edgeStyle=orthogonalEdgeStyle;rounded=0;orthogonalLoop=1;jettySize=auto;html=1;entryX=1;entryY=0.5;entryDx=0;entryDy=0;" parent="1" source="4ZmFrHPsVRY0wmb2Naa1-8" target="4ZmFrHPsVRY0wmb2Naa1-4" edge="1">
          <mxGeometry relative="1" as="geometry">
            <Array as="points">
              <mxPoint x="80" y="340" />
              <mxPoint x="80" y="350" />
              <mxPoint x="-40" y="350" />
            </Array>
          </mxGeometry>
        </mxCell>
        <mxCell id="4ZmFrHPsVRY0wmb2Naa1-8" value="MUX" style="shape=stencil(rZXhbsIgEMefhq+Gcpu6j6Zz74EVVyKDBjqdb++1tHWz0swCaZrc/Xs/esflIJC7kleCMFoSeCeMZZTiG+3znc1dJYraO0/cSr5TwiuutuYoznJfdwypS2Fl3aiwJXSD3zQP5IXRGiHSaPdH+aUjjEuNsfTHw7rtL521yLxN2MdsBItHQDziJR7xGo9YxiNW8Yh1POLteUSWoJwLwJWgRfvNb5BZf7PElaDbH2U1o8DjrNapsgp0DOToCY0ZyHe8OH5a863346igdjBWPBAGWSrlR+BEXhVvhuNI6OUvcxLB1p6qWA9QUgcBwwh/BjEEdZBVAgb8i1Eo46ZKif5ANfEyC51DGzY6yNbrL8DWcQU=);whiteSpace=wrap;html=1;rotation=-180;" parent="1" vertex="1">
          <mxGeometry x="100" y="315" width="30" height="65" as="geometry" />
        </mxCell>
        <mxCell id="4ZmFrHPsVRY0wmb2Naa1-10" style="edgeStyle=orthogonalEdgeStyle;rounded=0;orthogonalLoop=1;jettySize=auto;html=1;entryX=0;entryY=0.8;entryDx=0;entryDy=0;entryPerimeter=0;" parent="1" source="4ZmFrHPsVRY0wmb2Naa1-6" target="4ZmFrHPsVRY0wmb2Naa1-8" edge="1">
          <mxGeometry relative="1" as="geometry" />
        </mxCell>
        <mxCell id="4ZmFrHPsVRY0wmb2Naa1-11" value="PC_MUX" style="text;html=1;align=center;verticalAlign=middle;resizable=0;points=[];autosize=1;strokeColor=none;fillColor=none;" parent="1" vertex="1">
          <mxGeometry x="70" y="384" width="70" height="30" as="geometry" />
        </mxCell>
        <mxCell id="4ZmFrHPsVRY0wmb2Naa1-12" style="edgeStyle=orthogonalEdgeStyle;rounded=0;orthogonalLoop=1;jettySize=auto;html=1;entryX=0;entryY=0.5;entryDx=0;entryDy=0;entryPerimeter=0;" parent="1" target="RZPMSImgbp9GQ24cSpTt-19" edge="1">
          <mxGeometry relative="1" as="geometry">
            <Array as="points">
              <mxPoint x="1690" y="660" />
              <mxPoint x="870" y="660" />
              <mxPoint x="870" y="640" />
              <mxPoint x="-125" y="640" />
            </Array>
            <mxPoint x="1690" y="310" as="sourcePoint" />
          </mxGeometry>
        </mxCell>
        <mxCell id="4ZmFrHPsVRY0wmb2Naa1-16" value="RES_MUX" style="text;html=1;align=center;verticalAlign=middle;resizable=0;points=[];autosize=1;strokeColor=none;fillColor=none;" parent="1" vertex="1">
          <mxGeometry x="1590" y="17.5" width="80" height="30" as="geometry" />
        </mxCell>
        <mxCell id="4ZmFrHPsVRY0wmb2Naa1-17" value="0" style="whiteSpace=wrap;html=1;" parent="1" vertex="1">
          <mxGeometry x="180" y="350" width="20" height="20" as="geometry" />
        </mxCell>
        <mxCell id="4ZmFrHPsVRY0wmb2Naa1-18" style="edgeStyle=orthogonalEdgeStyle;rounded=0;orthogonalLoop=1;jettySize=auto;html=1;entryX=0;entryY=0.5;entryDx=0;entryDy=0;entryPerimeter=0;" parent="1" source="4ZmFrHPsVRY0wmb2Naa1-17" target="4ZmFrHPsVRY0wmb2Naa1-8" edge="1">
          <mxGeometry relative="1" as="geometry" />
        </mxCell>
        <mxCell id="ZQkA5c-FWtBKnHr2r9p1-2" value="11:9" style="text;html=1;align=center;verticalAlign=middle;resizable=0;points=[];autosize=1;strokeColor=none;fillColor=none;" parent="1" vertex="1">
          <mxGeometry x="525" y="230" width="50" height="30" as="geometry" />
        </mxCell>
        <mxCell id="ZQkA5c-FWtBKnHr2r9p1-3" value="8:6" style="text;html=1;align=center;verticalAlign=middle;resizable=0;points=[];autosize=1;strokeColor=none;fillColor=none;" parent="1" vertex="1">
          <mxGeometry x="545" y="285" width="40" height="30" as="geometry" />
        </mxCell>
        <mxCell id="ZQkA5c-FWtBKnHr2r9p1-4" value="rd always asserted" style="text;html=1;align=center;verticalAlign=middle;resizable=0;points=[];autosize=1;strokeColor=none;fillColor=none;" parent="1" vertex="1">
          <mxGeometry x="585" y="215" width="120" height="30" as="geometry" />
        </mxCell>
        <mxCell id="ZQkA5c-FWtBKnHr2r9p1-5" value="" style="verticalLabelPosition=bottom;shadow=0;dashed=0;align=center;html=1;verticalAlign=top;shape=mxgraph.electrical.logic_gates.d_type_rs_flip-flop;fillStyle=auto;fillColor=#dae8fc;strokeColor=#6c8ebf;" parent="1" vertex="1">
          <mxGeometry x="755" y="460" width="50" height="60" as="geometry" />
        </mxCell>
        <mxCell id="ZQkA5c-FWtBKnHr2r9p1-9" value="" style="verticalLabelPosition=bottom;shadow=0;dashed=0;align=center;html=1;verticalAlign=top;shape=mxgraph.electrical.logic_gates.d_type_rs_flip-flop;fillStyle=auto;fillColor=#dae8fc;strokeColor=#6c8ebf;" parent="1" vertex="1">
          <mxGeometry x="705" y="315" width="50" height="60" as="geometry" />
        </mxCell>
        <mxCell id="ZQkA5c-FWtBKnHr2r9p1-10" value="" style="verticalLabelPosition=bottom;shadow=0;dashed=0;align=center;html=1;verticalAlign=top;shape=mxgraph.electrical.logic_gates.d_type_rs_flip-flop;fillStyle=auto;fillColor=#dae8fc;strokeColor=#6c8ebf;" parent="1" vertex="1">
          <mxGeometry x="705" y="230" width="50" height="60" as="geometry" />
        </mxCell>
        <mxCell id="ZQkA5c-FWtBKnHr2r9p1-11" value="MUX" style="shape=stencil(rZXhbsIgEMefhq+Gcpu6j6Zz74EVVyKDBjqdb++1tHWz0swCaZrc/Xs/esflIJC7kleCMFoSeCeMZZTiG+3znc1dJYraO0/cSr5TwiuutuYoznJfdwypS2Fl3aiwJXSD3zQP5IXRGiHSaPdH+aUjjEuNsfTHw7rtL521yLxN2MdsBItHQDziJR7xGo9YxiNW8Yh1POLteUSWoJwLwJWgRfvNb5BZf7PElaDbH2U1o8DjrNapsgp0DOToCY0ZyHe8OH5a863346igdjBWPBAGWSrlR+BEXhVvhuNI6OUvcxLB1p6qWA9QUgcBwwh/BjEEdZBVAgb8i1Eo46ZKif5ANfEyC51DGzY6yNbrL8DWcQU=);whiteSpace=wrap;html=1;" parent="1" vertex="1">
          <mxGeometry x="830" y="460" width="30" height="60" as="geometry" />
        </mxCell>
        <mxCell id="ZQkA5c-FWtBKnHr2r9p1-12" value="SHAMT_IMM_MUX" style="text;html=1;align=center;verticalAlign=middle;resizable=0;points=[];autosize=1;strokeColor=none;fillColor=none;" parent="1" vertex="1">
          <mxGeometry x="770" y="520" width="130" height="30" as="geometry" />
        </mxCell>
        <mxCell id="ZQkA5c-FWtBKnHr2r9p1-13" value="" style="endArrow=classic;html=1;rounded=0;" parent="1" edge="1">
          <mxGeometry width="50" height="50" relative="1" as="geometry">
            <mxPoint x="530" y="290" as="sourcePoint" />
            <mxPoint x="830" y="480" as="targetPoint" />
            <Array as="points">
              <mxPoint x="530" y="480" />
            </Array>
          </mxGeometry>
        </mxCell>
        <mxCell id="ZQkA5c-FWtBKnHr2r9p1-14" value="" style="endArrow=classic;html=1;rounded=0;entryX=0.5;entryY=0;entryDx=0;entryDy=0;" parent="1" target="mKl1IKBuFgSc5wh1EqZh-21" edge="1">
          <mxGeometry width="50" height="50" relative="1" as="geometry">
            <mxPoint x="1325" y="80" as="sourcePoint" />
            <mxPoint x="1360" y="60" as="targetPoint" />
          </mxGeometry>
        </mxCell>
        <mxCell id="ZQkA5c-FWtBKnHr2r9p1-15" value="" style="verticalLabelPosition=bottom;shadow=0;dashed=0;align=center;html=1;verticalAlign=top;shape=mxgraph.electrical.logic_gates.d_type_rs_flip-flop;fillStyle=auto;fillColor=#dae8fc;strokeColor=#6c8ebf;rotation=90;" parent="1" vertex="1">
          <mxGeometry x="1285" y="70" width="80" height="100" as="geometry" />
        </mxCell>
        <mxCell id="ZQkA5c-FWtBKnHr2r9p1-16" value="rd/wr" style="text;html=1;align=center;verticalAlign=middle;resizable=0;points=[];autosize=1;strokeColor=none;fillColor=none;" parent="1" vertex="1">
          <mxGeometry x="1300" y="58" width="50" height="30" as="geometry" />
        </mxCell>
        <mxCell id="ZQkA5c-FWtBKnHr2r9p1-17" value="" style="verticalLabelPosition=bottom;shadow=0;dashed=0;align=center;html=1;verticalAlign=top;shape=mxgraph.electrical.logic_gates.d_type_rs_flip-flop;fillStyle=auto;fillColor=#dae8fc;strokeColor=#6c8ebf;" parent="1" vertex="1">
          <mxGeometry x="1370" y="285" width="50" height="50" as="geometry" />
        </mxCell>
        <mxCell id="ZQkA5c-FWtBKnHr2r9p1-18" value="" style="endArrow=classic;html=1;rounded=0;" parent="1" edge="1">
          <mxGeometry width="50" height="50" relative="1" as="geometry">
            <mxPoint x="1630" y="50" as="sourcePoint" />
            <mxPoint x="1630" y="180" as="targetPoint" />
          </mxGeometry>
        </mxCell>
        <mxCell id="ZQkA5c-FWtBKnHr2r9p1-19" value="" style="verticalLabelPosition=bottom;shadow=0;dashed=0;align=center;html=1;verticalAlign=top;shape=mxgraph.electrical.logic_gates.d_type_rs_flip-flop;fillStyle=auto;fillColor=#dae8fc;strokeColor=#6c8ebf;rotation=90;" parent="1" vertex="1">
          <mxGeometry x="1610" y="47.5" width="50" height="85" as="geometry" />
        </mxCell>
        <mxCell id="ZQkA5c-FWtBKnHr2r9p1-20" value="" style="verticalLabelPosition=bottom;shadow=0;dashed=0;align=center;html=1;verticalAlign=top;shape=mxgraph.electrical.logic_gates.d_type_rs_flip-flop;fillStyle=auto;fillColor=#dae8fc;strokeColor=#6c8ebf;rotation=90;" parent="1" vertex="1">
          <mxGeometry x="1612.5" y="95" width="45" height="90" as="geometry" />
        </mxCell>
        <mxCell id="ZQkA5c-FWtBKnHr2r9p1-22" value="&lt;font style=&quot;font-size: 5px;&quot;&gt;dispatched at EXECUTE&lt;/font&gt;" style="text;html=1;align=center;verticalAlign=middle;resizable=0;points=[];autosize=1;strokeColor=none;fillColor=none;" parent="1" vertex="1">
          <mxGeometry x="1660" y="28" width="80" height="30" as="geometry" />
        </mxCell>
        <mxCell id="ZQkA5c-FWtBKnHr2r9p1-23" value="&lt;span style=&quot;font-size: 5px;&quot;&gt;MEMORY ACCESS&lt;/span&gt;" style="text;html=1;align=center;verticalAlign=middle;resizable=0;points=[];autosize=1;strokeColor=none;fillColor=none;" parent="1" vertex="1">
          <mxGeometry x="1655" y="95" width="70" height="30" as="geometry" />
        </mxCell>
        <mxCell id="ZQkA5c-FWtBKnHr2r9p1-24" value="&lt;font style=&quot;font-size: 5px;&quot;&gt;WRITE BACK&lt;/font&gt;" style="text;html=1;align=center;verticalAlign=middle;resizable=0;points=[];autosize=1;strokeColor=none;fillColor=none;" parent="1" vertex="1">
          <mxGeometry x="1650" y="155" width="50" height="30" as="geometry" />
        </mxCell>
        <mxCell id="ZQkA5c-FWtBKnHr2r9p1-25" value="1" style="text;html=1;align=center;verticalAlign=middle;resizable=0;points=[];autosize=1;strokeColor=none;fillColor=none;" parent="1" vertex="1">
          <mxGeometry x="1600" y="200" width="30" height="30" as="geometry" />
        </mxCell>
        <mxCell id="ZQkA5c-FWtBKnHr2r9p1-26" value="0" style="text;html=1;align=center;verticalAlign=middle;resizable=0;points=[];autosize=1;strokeColor=none;fillColor=none;" parent="1" vertex="1">
          <mxGeometry x="1600" y="260" width="30" height="30" as="geometry" />
        </mxCell>
        <mxCell id="ZQkA5c-FWtBKnHr2r9p1-28" value="" style="verticalLabelPosition=bottom;shadow=0;dashed=0;align=center;html=1;verticalAlign=top;shape=mxgraph.electrical.logic_gates.d_type_rs_flip-flop;fillStyle=auto;fillColor=#dae8fc;strokeColor=#6c8ebf;" parent="1" vertex="1">
          <mxGeometry x="1090" y="447.5" width="50" height="65" as="geometry" />
        </mxCell>
        <mxCell id="ZQkA5c-FWtBKnHr2r9p1-29" value="wdata" style="text;html=1;align=center;verticalAlign=middle;resizable=0;points=[];autosize=1;strokeColor=none;fillColor=none;" parent="1" vertex="1">
          <mxGeometry x="1230" y="370" width="60" height="30" as="geometry" />
        </mxCell>
        <mxCell id="ZQkA5c-FWtBKnHr2r9p1-30" value="addr" style="text;html=1;align=center;verticalAlign=middle;resizable=0;points=[];autosize=1;strokeColor=none;fillColor=none;" parent="1" vertex="1">
          <mxGeometry x="1230" y="295" width="50" height="30" as="geometry" />
        </mxCell>
        <mxCell id="ZQkA5c-FWtBKnHr2r9p1-31" value="" style="endArrow=classic;html=1;rounded=0;" parent="1" edge="1">
          <mxGeometry width="50" height="50" relative="1" as="geometry">
            <mxPoint x="820" y="350" as="sourcePoint" />
            <mxPoint x="1220" y="390" as="targetPoint" />
            <Array as="points">
              <mxPoint x="1070" y="490" />
              <mxPoint x="1150" y="490" />
            </Array>
          </mxGeometry>
        </mxCell>
        <mxCell id="wIQdWQfcXO-qGlSMQ4PL-1" value="0" style="text;html=1;align=center;verticalAlign=middle;resizable=0;points=[];autosize=1;strokeColor=none;fillColor=none;" parent="1" vertex="1">
          <mxGeometry x="880" y="440" width="30" height="30" as="geometry" />
        </mxCell>
        <mxCell id="wIQdWQfcXO-qGlSMQ4PL-2" value="1" style="text;html=1;align=center;verticalAlign=middle;resizable=0;points=[];autosize=1;strokeColor=none;fillColor=none;" parent="1" vertex="1">
          <mxGeometry x="885" y="490" width="30" height="30" as="geometry" />
        </mxCell>
        <mxCell id="wIQdWQfcXO-qGlSMQ4PL-3" value="" style="endArrow=classic;html=1;rounded=0;exitX=1;exitY=0.5;exitDx=0;exitDy=0;exitPerimeter=0;entryX=-0.064;entryY=0;entryDx=0;entryDy=0;entryPerimeter=0;" parent="1" source="ZQkA5c-FWtBKnHr2r9p1-11" target="wIQdWQfcXO-qGlSMQ4PL-2" edge="1">
          <mxGeometry width="50" height="50" relative="1" as="geometry">
            <mxPoint x="860" y="530" as="sourcePoint" />
            <mxPoint x="910" y="480" as="targetPoint" />
          </mxGeometry>
        </mxCell>
        <mxCell id="wIQdWQfcXO-qGlSMQ4PL-10" value="" style="endArrow=classic;html=1;rounded=0;entryX=0.546;entryY=1.091;entryDx=0;entryDy=0;entryPerimeter=0;exitX=0.556;exitY=0;exitDx=0;exitDy=0;exitPerimeter=0;" parent="1" source="wIQdWQfcXO-qGlSMQ4PL-13" target="4ZmFrHPsVRY0wmb2Naa1-11" edge="1">
          <mxGeometry width="50" height="50" relative="1" as="geometry">
            <mxPoint x="105" y="530" as="sourcePoint" />
            <mxPoint x="140" y="440" as="targetPoint" />
            <Array as="points">
              <mxPoint x="110" y="530" />
            </Array>
          </mxGeometry>
        </mxCell>
        <mxCell id="wIQdWQfcXO-qGlSMQ4PL-11" value="" style="verticalLabelPosition=bottom;shadow=0;dashed=0;align=center;html=1;verticalAlign=top;shape=mxgraph.electrical.logic_gates.d_type_rs_flip-flop;fillStyle=auto;fillColor=#dae8fc;strokeColor=#6c8ebf;rotation=90;" parent="1" vertex="1">
          <mxGeometry x="90" y="435" width="30" height="40" as="geometry" />
        </mxCell>
        <mxCell id="wIQdWQfcXO-qGlSMQ4PL-12" value="" style="verticalLabelPosition=bottom;shadow=0;dashed=0;align=center;html=1;verticalAlign=top;shape=mxgraph.electrical.logic_gates.d_type_rs_flip-flop;fillStyle=auto;fillColor=#dae8fc;strokeColor=#6c8ebf;rotation=90;" parent="1" vertex="1">
          <mxGeometry x="90" y="468" width="30" height="40" as="geometry" />
        </mxCell>
        <mxCell id="wIQdWQfcXO-qGlSMQ4PL-13" value="from control" style="text;html=1;align=center;verticalAlign=middle;resizable=0;points=[];autosize=1;strokeColor=none;fillColor=none;" parent="1" vertex="1">
          <mxGeometry x="60" y="530" width="90" height="30" as="geometry" />
        </mxCell>
        <mxCell id="wIQdWQfcXO-qGlSMQ4PL-15" value="0" style="text;html=1;align=center;verticalAlign=middle;resizable=0;points=[];autosize=1;strokeColor=none;fillColor=none;" parent="1" vertex="1">
          <mxGeometry x="110" y="325" width="30" height="30" as="geometry" />
        </mxCell>
        <mxCell id="wIQdWQfcXO-qGlSMQ4PL-16" value="1" style="text;html=1;align=center;verticalAlign=middle;resizable=0;points=[];autosize=1;strokeColor=none;fillColor=none;" parent="1" vertex="1">
          <mxGeometry x="110" y="310" width="30" height="30" as="geometry" />
        </mxCell>
        <mxCell id="wIQdWQfcXO-qGlSMQ4PL-19" value="MUX" style="shape=stencil(rZXhbsIgEMefhq+Gcpu6j6Zz74EVVyKDBjqdb++1tHWz0swCaZrc/Xs/esflIJC7kleCMFoSeCeMZZTiG+3znc1dJYraO0/cSr5TwiuutuYoznJfdwypS2Fl3aiwJXSD3zQP5IXRGiHSaPdH+aUjjEuNsfTHw7rtL521yLxN2MdsBItHQDziJR7xGo9YxiNW8Yh1POLteUSWoJwLwJWgRfvNb5BZf7PElaDbH2U1o8DjrNapsgp0DOToCY0ZyHe8OH5a863346igdjBWPBAGWSrlR+BEXhVvhuNI6OUvcxLB1p6qWA9QUgcBwwh/BjEEdZBVAgb8i1Eo46ZKif5ANfEyC51DGzY6yNbrL8DWcQU=);whiteSpace=wrap;html=1;rotation=-180;" parent="1" vertex="1">
          <mxGeometry y="330" width="30" height="60" as="geometry" />
        </mxCell>
        <mxCell id="wIQdWQfcXO-qGlSMQ4PL-20" value="" style="endArrow=classic;html=1;rounded=0;entryX=0;entryY=0.2;entryDx=0;entryDy=0;entryPerimeter=0;" parent="1" target="wIQdWQfcXO-qGlSMQ4PL-19" edge="1">
          <mxGeometry width="50" height="50" relative="1" as="geometry">
            <mxPoint x="520" y="500" as="sourcePoint" />
            <mxPoint x="420" y="460" as="targetPoint" />
            <Array as="points">
              <mxPoint x="220" y="500" />
            </Array>
          </mxGeometry>
        </mxCell>
        <mxCell id="wIQdWQfcXO-qGlSMQ4PL-21" value="" style="verticalLabelPosition=bottom;shadow=0;dashed=0;align=center;html=1;verticalAlign=top;shape=mxgraph.electrical.logic_gates.d_type_rs_flip-flop;fillStyle=auto;fillColor=#dae8fc;strokeColor=#6c8ebf;" parent="1" vertex="1">
          <mxGeometry x="370" y="480" width="30" height="50" as="geometry" />
        </mxCell>
        <mxCell id="wIQdWQfcXO-qGlSMQ4PL-24" value="" style="verticalLabelPosition=bottom;shadow=0;dashed=0;align=center;html=1;verticalAlign=top;shape=mxgraph.electrical.logic_gates.d_type_rs_flip-flop;fillStyle=auto;fillColor=#dae8fc;strokeColor=#6c8ebf;" parent="1" vertex="1">
          <mxGeometry x="330" y="480" width="30" height="50" as="geometry" />
        </mxCell>
        <mxCell id="wIQdWQfcXO-qGlSMQ4PL-25" value="" style="verticalLabelPosition=bottom;shadow=0;dashed=0;align=center;html=1;verticalAlign=top;shape=mxgraph.electrical.logic_gates.d_type_rs_flip-flop;fillStyle=auto;fillColor=#dae8fc;strokeColor=#6c8ebf;" parent="1" vertex="1">
          <mxGeometry x="280" y="480" width="30" height="50" as="geometry" />
        </mxCell>
        <mxCell id="wIQdWQfcXO-qGlSMQ4PL-26" value="offset*2+2" style="text;html=1;align=center;verticalAlign=middle;resizable=0;points=[];autosize=1;strokeColor=none;fillColor=none;" parent="1" vertex="1">
          <mxGeometry x="200" y="468" width="80" height="30" as="geometry" />
        </mxCell>
        <mxCell id="wIQdWQfcXO-qGlSMQ4PL-27" value="0" style="text;html=1;align=center;verticalAlign=middle;resizable=0;points=[];autosize=1;strokeColor=none;fillColor=none;" parent="1" vertex="1">
          <mxGeometry x="10" y="365" width="30" height="30" as="geometry" />
        </mxCell>
        <mxCell id="wIQdWQfcXO-qGlSMQ4PL-28" value="1" style="text;html=1;align=center;verticalAlign=middle;resizable=0;points=[];autosize=1;strokeColor=none;fillColor=none;" parent="1" vertex="1">
          <mxGeometry x="10" y="332.5" width="30" height="30" as="geometry" />
        </mxCell>
        <mxCell id="wIQdWQfcXO-qGlSMQ4PL-29" value="" style="endArrow=classic;html=1;rounded=0;entryX=0;entryY=0.833;entryDx=0;entryDy=0;entryPerimeter=0;" parent="1" target="wIQdWQfcXO-qGlSMQ4PL-27" edge="1">
          <mxGeometry width="50" height="50" relative="1" as="geometry">
            <mxPoint x="10" y="480" as="sourcePoint" />
            <mxPoint x="50" y="430" as="targetPoint" />
          </mxGeometry>
        </mxCell>
        <mxCell id="wIQdWQfcXO-qGlSMQ4PL-30" value="result of comparison from ALU.&lt;div&gt;if == then &#39;0&#39; else &#39;1&#39;&lt;/div&gt;" style="text;html=1;align=center;verticalAlign=middle;resizable=0;points=[];autosize=1;strokeColor=none;fillColor=none;" parent="1" vertex="1">
          <mxGeometry x="-105" y="473" width="190" height="40" as="geometry" />
        </mxCell>
        <mxCell id="RZPMSImgbp9GQ24cSpTt-1" value="" style="endArrow=classic;html=1;rounded=0;" edge="1" parent="1">
          <mxGeometry width="50" height="50" relative="1" as="geometry">
            <mxPoint x="670" y="100" as="sourcePoint" />
            <mxPoint x="670" y="210" as="targetPoint" />
          </mxGeometry>
        </mxCell>
        <mxCell id="RZPMSImgbp9GQ24cSpTt-2" value="wb_wr" style="text;html=1;align=center;verticalAlign=middle;resizable=0;points=[];autosize=1;strokeColor=none;fillColor=none;" vertex="1" parent="1">
          <mxGeometry x="640" y="65" width="60" height="30" as="geometry" />
        </mxCell>
        <mxCell id="RZPMSImgbp9GQ24cSpTt-3" value="" style="verticalLabelPosition=bottom;shadow=0;dashed=0;align=center;html=1;verticalAlign=top;shape=mxgraph.electrical.logic_gates.d_type_rs_flip-flop;fillStyle=auto;fillColor=#dae8fc;strokeColor=#6c8ebf;rotation=90;" vertex="1" parent="1">
          <mxGeometry x="655" y="95" width="30" height="50" as="geometry" />
        </mxCell>
        <mxCell id="RZPMSImgbp9GQ24cSpTt-5" value="" style="verticalLabelPosition=bottom;shadow=0;dashed=0;align=center;html=1;verticalAlign=top;shape=mxgraph.electrical.logic_gates.d_type_rs_flip-flop;fillStyle=auto;fillColor=#dae8fc;strokeColor=#6c8ebf;rotation=90;" vertex="1" parent="1">
          <mxGeometry x="655" y="132.5" width="30" height="50" as="geometry" />
        </mxCell>
        <mxCell id="RZPMSImgbp9GQ24cSpTt-6" value="&lt;font style=&quot;font-size: 7px;&quot;&gt;execute&lt;/font&gt;" style="text;html=1;align=center;verticalAlign=middle;resizable=0;points=[];autosize=1;strokeColor=none;fillColor=none;" vertex="1" parent="1">
          <mxGeometry x="685" y="88" width="50" height="30" as="geometry" />
        </mxCell>
        <mxCell id="RZPMSImgbp9GQ24cSpTt-7" value="&lt;font style=&quot;font-size: 7px;&quot;&gt;ma&lt;/font&gt;" style="text;html=1;align=center;verticalAlign=middle;resizable=0;points=[];autosize=1;strokeColor=none;fillColor=none;" vertex="1" parent="1">
          <mxGeometry x="695" y="125" width="30" height="30" as="geometry" />
        </mxCell>
        <mxCell id="RZPMSImgbp9GQ24cSpTt-8" value="&lt;font style=&quot;font-size: 7px;&quot;&gt;wb&lt;/font&gt;" style="text;html=1;align=center;verticalAlign=middle;resizable=0;points=[];autosize=1;strokeColor=none;fillColor=none;" vertex="1" parent="1">
          <mxGeometry x="695" y="160" width="30" height="30" as="geometry" />
        </mxCell>
        <mxCell id="RZPMSImgbp9GQ24cSpTt-9" value="0" style="text;html=1;align=center;verticalAlign=middle;resizable=0;points=[];autosize=1;strokeColor=none;fillColor=none;" vertex="1" parent="1">
          <mxGeometry x="820" y="460" width="30" height="30" as="geometry" />
        </mxCell>
        <mxCell id="RZPMSImgbp9GQ24cSpTt-10" value="imm" style="text;html=1;align=center;verticalAlign=middle;resizable=0;points=[];autosize=1;strokeColor=none;fillColor=none;" vertex="1" parent="1">
          <mxGeometry x="785" y="448" width="50" height="30" as="geometry" />
        </mxCell>
        <mxCell id="RZPMSImgbp9GQ24cSpTt-11" value="shamt" style="text;html=1;align=center;verticalAlign=middle;resizable=0;points=[];autosize=1;strokeColor=none;fillColor=none;" vertex="1" parent="1">
          <mxGeometry x="785" y="490" width="60" height="30" as="geometry" />
        </mxCell>
        <mxCell id="RZPMSImgbp9GQ24cSpTt-12" value="1" style="text;html=1;align=center;verticalAlign=middle;resizable=0;points=[];autosize=1;strokeColor=none;fillColor=none;" vertex="1" parent="1">
          <mxGeometry x="820" y="490" width="30" height="30" as="geometry" />
        </mxCell>
        <mxCell id="RZPMSImgbp9GQ24cSpTt-13" value="BEQ_MUX" style="text;html=1;align=center;verticalAlign=middle;resizable=0;points=[];autosize=1;strokeColor=none;fillColor=none;" vertex="1" parent="1">
          <mxGeometry x="-20" y="302.5" width="80" height="30" as="geometry" />
        </mxCell>
        <mxCell id="RZPMSImgbp9GQ24cSpTt-14" value="" style="verticalLabelPosition=bottom;shadow=0;dashed=0;align=center;html=1;verticalAlign=top;shape=mxgraph.electrical.logic_gates.d_type_rs_flip-flop;fillStyle=auto;fillColor=#dae8fc;strokeColor=#6c8ebf;rotation=90;" vertex="1" parent="1">
          <mxGeometry x="-10" y="435" width="30" height="40" as="geometry" />
        </mxCell>
        <mxCell id="RZPMSImgbp9GQ24cSpTt-15" value="&lt;font style=&quot;font-size: 6px;&quot;&gt;execute&lt;/font&gt;" style="text;html=1;align=center;verticalAlign=middle;resizable=0;points=[];autosize=1;strokeColor=none;fillColor=none;" vertex="1" parent="1">
          <mxGeometry x="-40" y="450" width="40" height="30" as="geometry" />
        </mxCell>
        <mxCell id="RZPMSImgbp9GQ24cSpTt-16" value="&lt;font style=&quot;font-size: 6px;&quot;&gt;ma&lt;/font&gt;" style="text;html=1;align=center;verticalAlign=middle;resizable=0;points=[];autosize=1;strokeColor=none;fillColor=none;" vertex="1" parent="1">
          <mxGeometry x="-35" y="414" width="30" height="30" as="geometry" />
        </mxCell>
        <mxCell id="RZPMSImgbp9GQ24cSpTt-17" value="" style="verticalLabelPosition=bottom;shadow=0;dashed=0;align=center;html=1;verticalAlign=top;shape=mxgraph.electrical.logic_gates.d_type_rs_flip-flop;fillStyle=auto;fillColor=#dae8fc;strokeColor=#6c8ebf;rotation=90;" vertex="1" parent="1">
          <mxGeometry x="-5" y="394" width="30" height="40" as="geometry" />
        </mxCell>
        <mxCell id="RZPMSImgbp9GQ24cSpTt-18" value="&lt;font style=&quot;font-size: 6px;&quot;&gt;wb&lt;/font&gt;" style="text;html=1;align=center;verticalAlign=middle;resizable=0;points=[];autosize=1;strokeColor=none;fillColor=none;" vertex="1" parent="1">
          <mxGeometry x="-35" y="375" width="30" height="30" as="geometry" />
        </mxCell>
        <mxCell id="RZPMSImgbp9GQ24cSpTt-22" style="edgeStyle=orthogonalEdgeStyle;rounded=0;orthogonalLoop=1;jettySize=auto;html=1;entryX=0;entryY=0.5;entryDx=0;entryDy=0;" edge="1" parent="1" source="RZPMSImgbp9GQ24cSpTt-19" target="Pju4oIdgMfnVY8y6IHaK-1">
          <mxGeometry relative="1" as="geometry">
            <Array as="points">
              <mxPoint x="-130" y="313" />
              <mxPoint x="-130" y="250" />
            </Array>
          </mxGeometry>
        </mxCell>
        <mxCell id="RZPMSImgbp9GQ24cSpTt-19" value="MUX" style="shape=stencil(rZXhbsIgEMefhq+Gcpu6j6Zz74EVVyKDBjqdb++1tHWz0swCaZrc/Xs/esflIJC7kleCMFoSeCeMZZTiG+3znc1dJYraO0/cSr5TwiuutuYoznJfdwypS2Fl3aiwJXSD3zQP5IXRGiHSaPdH+aUjjEuNsfTHw7rtL521yLxN2MdsBItHQDziJR7xGo9YxiNW8Yh1POLteUSWoJwLwJWgRfvNb5BZf7PElaDbH2U1o8DjrNapsgp0DOToCY0ZyHe8OH5a863346igdjBWPBAGWSrlR+BEXhVvhuNI6OUvcxLB1p6qWA9QUgcBwwh/BjEEdZBVAgb8i1Eo46ZKif5ANfEyC51DGzY6yNbrL8DWcQU=);whiteSpace=wrap;html=1;rotation=-90;" vertex="1" parent="1">
          <mxGeometry x="-140" y="330" width="30" height="60" as="geometry" />
        </mxCell>
        <mxCell id="RZPMSImgbp9GQ24cSpTt-21" value="JUMP_MUX" style="text;html=1;align=center;verticalAlign=middle;resizable=0;points=[];autosize=1;strokeColor=none;fillColor=none;" vertex="1" parent="1">
          <mxGeometry x="-320" y="345" width="90" height="30" as="geometry" />
        </mxCell>
        <mxCell id="RZPMSImgbp9GQ24cSpTt-23" style="edgeStyle=orthogonalEdgeStyle;rounded=0;orthogonalLoop=1;jettySize=auto;html=1;exitX=0.5;exitY=1;exitDx=0;exitDy=0;entryX=0;entryY=0.7;entryDx=0;entryDy=0;entryPerimeter=0;" edge="1" parent="1" source="4ZmFrHPsVRY0wmb2Naa1-4" target="RZPMSImgbp9GQ24cSpTt-19">
          <mxGeometry relative="1" as="geometry" />
        </mxCell>
        <mxCell id="RZPMSImgbp9GQ24cSpTt-24" value="0" style="text;html=1;align=center;verticalAlign=middle;resizable=0;points=[];autosize=1;strokeColor=none;fillColor=none;" vertex="1" parent="1">
          <mxGeometry x="-120" y="354" width="30" height="30" as="geometry" />
        </mxCell>
        <mxCell id="RZPMSImgbp9GQ24cSpTt-25" value="1" style="text;html=1;align=center;verticalAlign=middle;resizable=0;points=[];autosize=1;strokeColor=none;fillColor=none;" vertex="1" parent="1">
          <mxGeometry x="-150" y="355" width="30" height="30" as="geometry" />
        </mxCell>
        <mxCell id="RZPMSImgbp9GQ24cSpTt-26" value="" style="endArrow=classic;html=1;rounded=0;" edge="1" parent="1">
          <mxGeometry width="50" height="50" relative="1" as="geometry">
            <mxPoint x="-220" y="360" as="sourcePoint" />
            <mxPoint x="-160" y="360" as="targetPoint" />
          </mxGeometry>
        </mxCell>
        <mxCell id="RZPMSImgbp9GQ24cSpTt-27" value="" style="verticalLabelPosition=bottom;shadow=0;dashed=0;align=center;html=1;verticalAlign=top;shape=mxgraph.electrical.logic_gates.d_type_rs_flip-flop;fillStyle=auto;fillColor=#dae8fc;strokeColor=#6c8ebf;rotation=0;" vertex="1" parent="1">
          <mxGeometry x="-230" y="340" width="30" height="40" as="geometry" />
        </mxCell>
        <mxCell id="RZPMSImgbp9GQ24cSpTt-28" value="" style="verticalLabelPosition=bottom;shadow=0;dashed=0;align=center;html=1;verticalAlign=top;shape=mxgraph.electrical.logic_gates.d_type_rs_flip-flop;fillStyle=auto;fillColor=#dae8fc;strokeColor=#6c8ebf;rotation=0;" vertex="1" parent="1">
          <mxGeometry x="-190" y="338" width="30" height="40" as="geometry" />
        </mxCell>
        <mxCell id="RZPMSImgbp9GQ24cSpTt-29" value="$rd, destination reg is available @ DECODE&lt;div&gt;, we use it @ WRITE_BACK, so it needs a 2stage pipe&lt;/div&gt;" style="text;html=1;align=center;verticalAlign=middle;resizable=0;points=[];autosize=1;strokeColor=none;fillColor=none;" vertex="1" parent="1">
          <mxGeometry x="180" y="7.5" width="310" height="40" as="geometry" />
        </mxCell>
        <mxCell id="RZPMSImgbp9GQ24cSpTt-30" value="MUX" style="shape=stencil(rZXhbsIgEMefhq+Gcpu6j6Zz74EVVyKDBjqdb++1tHWz0swCaZrc/Xs/esflIJC7kleCMFoSeCeMZZTiG+3znc1dJYraO0/cSr5TwiuutuYoznJfdwypS2Fl3aiwJXSD3zQP5IXRGiHSaPdH+aUjjEuNsfTHw7rtL521yLxN2MdsBItHQDziJR7xGo9YxiNW8Yh1POLteUSWoJwLwJWgRfvNb5BZf7PElaDbH2U1o8DjrNapsgp0DOToCY0ZyHe8OH5a863346igdjBWPBAGWSrlR+BEXhVvhuNI6OUvcxLB1p6qWA9QUgcBwwh/BjEEdZBVAgb8i1Eo46ZKif5ANfEyC51DGzY6yNbrL8DWcQU=);whiteSpace=wrap;html=1;" vertex="1" parent="1">
          <mxGeometry x="545" y="320" width="15" height="40" as="geometry" />
        </mxCell>
        <mxCell id="RZPMSImgbp9GQ24cSpTt-32" style="edgeStyle=orthogonalEdgeStyle;rounded=0;orthogonalLoop=1;jettySize=auto;html=1;exitX=1;exitY=0.7;exitDx=0;exitDy=0;exitPerimeter=0;entryX=0;entryY=0.3;entryDx=0;entryDy=0;entryPerimeter=0;" edge="1" parent="1" source="mKl1IKBuFgSc5wh1EqZh-3" target="RZPMSImgbp9GQ24cSpTt-30">
          <mxGeometry relative="1" as="geometry" />
        </mxCell>
        <mxCell id="RZPMSImgbp9GQ24cSpTt-33" value="rd *double pipe*" style="text;html=1;align=center;verticalAlign=middle;resizable=0;points=[];autosize=1;strokeColor=none;fillColor=none;" vertex="1" parent="1">
          <mxGeometry x="465" y="302.5" width="110" height="30" as="geometry" />
        </mxCell>
        <mxCell id="RZPMSImgbp9GQ24cSpTt-34" value="&lt;font style=&quot;font-size: 8px;&quot;&gt;0&lt;/font&gt;" style="text;html=1;align=center;verticalAlign=middle;resizable=0;points=[];autosize=1;strokeColor=none;fillColor=none;" vertex="1" parent="1">
          <mxGeometry x="535" y="315" width="30" height="30" as="geometry" />
        </mxCell>
        <mxCell id="RZPMSImgbp9GQ24cSpTt-35" value="&lt;font style=&quot;font-size: 6px;&quot;&gt;1&lt;/font&gt;" style="text;html=1;align=center;verticalAlign=middle;resizable=0;points=[];autosize=1;strokeColor=none;fillColor=none;" vertex="1" parent="1">
          <mxGeometry x="535" y="335" width="30" height="30" as="geometry" />
        </mxCell>
        <mxCell id="RZPMSImgbp9GQ24cSpTt-37" value="" style="endArrow=classic;html=1;rounded=0;entryX=0.001;entryY=0.729;entryDx=0;entryDy=0;entryPerimeter=0;" edge="1" parent="1" target="mKl1IKBuFgSc5wh1EqZh-6">
          <mxGeometry width="50" height="50" relative="1" as="geometry">
            <mxPoint x="570" y="340" as="sourcePoint" />
            <mxPoint x="610" y="360" as="targetPoint" />
          </mxGeometry>
        </mxCell>
        <mxCell id="RZPMSImgbp9GQ24cSpTt-38" value="WB_MUX&lt;div&gt;*double pipe*&lt;/div&gt;" style="text;html=1;align=center;verticalAlign=middle;resizable=0;points=[];autosize=1;strokeColor=none;fillColor=none;" vertex="1" parent="1">
          <mxGeometry x="507.5" y="355" width="90" height="40" as="geometry" />
        </mxCell>
        <mxCell id="RZPMSImgbp9GQ24cSpTt-39" value="" style="endArrow=classic;html=1;rounded=0;entryX=0.09;entryY=0.527;entryDx=0;entryDy=0;entryPerimeter=0;" edge="1" parent="1" target="RZPMSImgbp9GQ24cSpTt-35">
          <mxGeometry width="50" height="50" relative="1" as="geometry">
            <mxPoint x="460" y="400" as="sourcePoint" />
            <mxPoint x="470" y="390" as="targetPoint" />
          </mxGeometry>
        </mxCell>
        <mxCell id="RZPMSImgbp9GQ24cSpTt-40" value="wb_waddr&lt;div&gt;*double pipe*&lt;/div&gt;" style="text;html=1;align=center;verticalAlign=middle;resizable=0;points=[];autosize=1;strokeColor=none;fillColor=none;" vertex="1" parent="1">
          <mxGeometry x="385" y="385" width="90" height="40" as="geometry" />
        </mxCell>
        <mxCell id="OXUo7Zy7V1AOqY00rek3-1" value="" style="shape=cross;whiteSpace=wrap;html=1;rotation=90;fillColor=#f8cecc;strokeColor=#b85450;" vertex="1" parent="1">
          <mxGeometry x="-55" y="290" width="10" height="10" as="geometry" />
        </mxCell>
        <mxCell id="OXUo7Zy7V1AOqY00rek3-4" value="MUX" style="shape=stencil(rZXhbsIgEMefhq+Gcpu6j6Zz74EVVyKDBjqdb++1tHWz0swCaZrc/Xs/esflIJC7kleCMFoSeCeMZZTiG+3znc1dJYraO0/cSr5TwiuutuYoznJfdwypS2Fl3aiwJXSD3zQP5IXRGiHSaPdH+aUjjEuNsfTHw7rtL521yLxN2MdsBItHQDziJR7xGo9YxiNW8Yh1POLteUSWoJwLwJWgRfvNb5BZf7PElaDbH2U1o8DjrNapsgp0DOToCY0ZyHe8OH5a863346igdjBWPBAGWSrlR+BEXhVvhuNI6OUvcxLB1p6qWA9QUgcBwwh/BjEEdZBVAgb8i1Eo46ZKif5ANfEyC51DGzY6yNbrL8DWcQU=);whiteSpace=wrap;html=1;rotation=-180;" vertex="1" parent="1">
          <mxGeometry x="1340" y="520" width="40" height="68" as="geometry" />
        </mxCell>
        <mxCell id="OXUo7Zy7V1AOqY00rek3-5" value="" style="shape=cross;whiteSpace=wrap;html=1;rotation=90;fillColor=#f8cecc;strokeColor=#b85450;" vertex="1" parent="1">
          <mxGeometry x="1430" y="530" width="10" height="10" as="geometry" />
        </mxCell>
        <mxCell id="OXUo7Zy7V1AOqY00rek3-6" value="" style="endArrow=classic;html=1;rounded=0;entryX=0;entryY=0.7;entryDx=0;entryDy=0;entryPerimeter=0;" edge="1" parent="1" target="OXUo7Zy7V1AOqY00rek3-4">
          <mxGeometry width="50" height="50" relative="1" as="geometry">
            <mxPoint x="1420" y="540" as="sourcePoint" />
            <mxPoint x="1450" y="490" as="targetPoint" />
          </mxGeometry>
        </mxCell>
        <mxCell id="OXUo7Zy7V1AOqY00rek3-8" value="PC" style="text;html=1;align=center;verticalAlign=middle;resizable=0;points=[];autosize=1;strokeColor=none;fillColor=none;" vertex="1" parent="1">
          <mxGeometry x="1440" y="520" width="40" height="30" as="geometry" />
        </mxCell>
        <mxCell id="OXUo7Zy7V1AOqY00rek3-9" value="MUX" style="shape=stencil(rZXhbsIgEMefhq+Gcpu6j6Zz74EVVyKDBjqdb++1tHWz0swCaZrc/Xs/esflIJC7kleCMFoSeCeMZZTiG+3znc1dJYraO0/cSr5TwiuutuYoznJfdwypS2Fl3aiwJXSD3zQP5IXRGiHSaPdH+aUjjEuNsfTHw7rtL521yLxN2MdsBItHQDziJR7xGo9YxiNW8Yh1POLteUSWoJwLwJWgRfvNb5BZf7PElaDbH2U1o8DjrNapsgp0DOToCY0ZyHe8OH5a863346igdjBWPBAGWSrlR+BEXhVvhuNI6OUvcxLB1p6qWA9QUgcBwwh/BjEEdZBVAgb8i1Eo46ZKif5ANfEyC51DGzY6yNbrL8DWcQU=);whiteSpace=wrap;html=1;" vertex="1" parent="1">
          <mxGeometry x="415" y="135" width="45" height="85" as="geometry" />
        </mxCell>
        <mxCell id="OXUo7Zy7V1AOqY00rek3-10" style="edgeStyle=orthogonalEdgeStyle;rounded=0;orthogonalLoop=1;jettySize=auto;html=1;entryX=0;entryY=0.6;entryDx=0;entryDy=0;entryPerimeter=0;" edge="1" parent="1" source="mKl1IKBuFgSc5wh1EqZh-2" target="OXUo7Zy7V1AOqY00rek3-9">
          <mxGeometry relative="1" as="geometry">
            <Array as="points">
              <mxPoint x="390" y="300" />
              <mxPoint x="390" y="186" />
            </Array>
          </mxGeometry>
        </mxCell>
        <mxCell id="OXUo7Zy7V1AOqY00rek3-11" style="edgeStyle=orthogonalEdgeStyle;rounded=0;orthogonalLoop=1;jettySize=auto;html=1;entryX=0;entryY=0.3;entryDx=0;entryDy=0;entryPerimeter=0;" edge="1" parent="1" source="OXUo7Zy7V1AOqY00rek3-9" target="mKl1IKBuFgSc5wh1EqZh-3">
          <mxGeometry relative="1" as="geometry">
            <Array as="points">
              <mxPoint x="480" y="178" />
              <mxPoint x="480" y="240" />
              <mxPoint x="410" y="240" />
              <mxPoint x="410" y="290" />
            </Array>
          </mxGeometry>
        </mxCell>
        <mxCell id="OXUo7Zy7V1AOqY00rek3-12" value="null opcode" style="text;html=1;align=center;verticalAlign=middle;resizable=0;points=[];autosize=1;strokeColor=none;fillColor=none;" vertex="1" parent="1">
          <mxGeometry x="280" y="135" width="80" height="30" as="geometry" />
        </mxCell>
        <mxCell id="OXUo7Zy7V1AOqY00rek3-13" value="" style="endArrow=classic;html=1;rounded=0;entryX=0;entryY=0.2;entryDx=0;entryDy=0;entryPerimeter=0;" edge="1" parent="1" target="OXUo7Zy7V1AOqY00rek3-9">
          <mxGeometry width="50" height="50" relative="1" as="geometry">
            <mxPoint x="360" y="152" as="sourcePoint" />
            <mxPoint x="420" y="130" as="targetPoint" />
          </mxGeometry>
        </mxCell>
        <mxCell id="OXUo7Zy7V1AOqY00rek3-14" value="1" style="text;html=1;align=center;verticalAlign=middle;resizable=0;points=[];autosize=1;strokeColor=none;fillColor=none;" vertex="1" parent="1">
          <mxGeometry x="410" y="140" width="30" height="30" as="geometry" />
        </mxCell>
        <mxCell id="OXUo7Zy7V1AOqY00rek3-15" value="0" style="text;html=1;align=center;verticalAlign=middle;resizable=0;points=[];autosize=1;strokeColor=none;fillColor=none;" vertex="1" parent="1">
          <mxGeometry x="410" y="182.5" width="30" height="30" as="geometry" />
        </mxCell>
        <mxCell id="OXUo7Zy7V1AOqY00rek3-16" value="" style="edgeStyle=none;orthogonalLoop=1;jettySize=auto;html=1;rounded=0;" edge="1" parent="1" target="OXUo7Zy7V1AOqY00rek3-9">
          <mxGeometry width="100" relative="1" as="geometry">
            <mxPoint x="438" y="110" as="sourcePoint" />
            <mxPoint x="490" y="120" as="targetPoint" />
            <Array as="points" />
          </mxGeometry>
        </mxCell>
        <mxCell id="OXUo7Zy7V1AOqY00rek3-17" value="SILENCE_MUX" style="text;html=1;align=center;verticalAlign=middle;resizable=0;points=[];autosize=1;strokeColor=none;fillColor=none;" vertex="1" parent="1">
          <mxGeometry x="380" y="88" width="110" height="30" as="geometry" />
        </mxCell>
      </root>
    </mxGraphModel>
  </diagram>
  <diagram id="Yev-Zg1DlhuAVzjYhQG2" name="FSM">
    <mxGraphModel dx="1254" dy="753" grid="1" gridSize="10" guides="1" tooltips="1" connect="1" arrows="1" fold="1" page="1" pageScale="1" pageWidth="1169" pageHeight="827" math="0" shadow="0">
      <root>
        <mxCell id="0" />
        <mxCell id="1" parent="0" />
        <mxCell id="ag3IKZqobWqmE5NaDpyl-1" value="FETCH&lt;div&gt;* rd from rom.v&lt;/div&gt;" style="ellipse;whiteSpace=wrap;html=1;" vertex="1" parent="1">
          <mxGeometry x="390" y="20" width="340" height="230" as="geometry" />
        </mxCell>
        <mxCell id="ag3IKZqobWqmE5NaDpyl-2" value="DECODE&lt;div&gt;* classify R-format, I-format, J-format&lt;/div&gt;" style="ellipse;whiteSpace=wrap;html=1;" vertex="1" parent="1">
          <mxGeometry x="390" y="310" width="340" height="230" as="geometry" />
        </mxCell>
      </root>
    </mxGraphModel>
  </diagram>
  <diagram id="wU5v9-MjfFQYmCouZSBZ" name="ALU">
    <mxGraphModel dx="1254" dy="753" grid="1" gridSize="10" guides="1" tooltips="1" connect="1" arrows="1" fold="1" page="1" pageScale="1" pageWidth="1169" pageHeight="827" math="0" shadow="0">
      <root>
        <mxCell id="0" />
        <mxCell id="1" parent="0" />
        <mxCell id="YxrUR9cCDGX0kRUGul5s-2" value="" style="shape=table;startSize=0;container=1;collapsible=0;childLayout=tableLayout;fontSize=16;" vertex="1" parent="1">
          <mxGeometry x="230" y="150" width="280" height="708" as="geometry" />
        </mxCell>
        <mxCell id="YxrUR9cCDGX0kRUGul5s-3" value="" style="shape=tableRow;horizontal=0;startSize=0;swimlaneHead=0;swimlaneBody=0;strokeColor=inherit;top=0;left=0;bottom=0;right=0;collapsible=0;dropTarget=0;fillColor=none;points=[[0,0.5],[1,0.5]];portConstraint=eastwest;fontSize=16;" vertex="1" parent="YxrUR9cCDGX0kRUGul5s-2">
          <mxGeometry width="280" height="79" as="geometry" />
        </mxCell>
        <mxCell id="YxrUR9cCDGX0kRUGul5s-4" value="&lt;b&gt;alu operation&lt;/b&gt;" style="shape=partialRectangle;html=1;whiteSpace=wrap;connectable=0;strokeColor=inherit;overflow=hidden;fillColor=none;top=0;left=0;bottom=0;right=0;pointerEvents=1;fontSize=16;" vertex="1" parent="YxrUR9cCDGX0kRUGul5s-3">
          <mxGeometry width="140" height="79" as="geometry">
            <mxRectangle width="140" height="79" as="alternateBounds" />
          </mxGeometry>
        </mxCell>
        <mxCell id="YxrUR9cCDGX0kRUGul5s-5" value="&lt;b&gt;code&lt;/b&gt;" style="shape=partialRectangle;html=1;whiteSpace=wrap;connectable=0;strokeColor=inherit;overflow=hidden;fillColor=none;top=0;left=0;bottom=0;right=0;pointerEvents=1;fontSize=16;" vertex="1" parent="YxrUR9cCDGX0kRUGul5s-3">
          <mxGeometry x="140" width="140" height="79" as="geometry">
            <mxRectangle width="140" height="79" as="alternateBounds" />
          </mxGeometry>
        </mxCell>
        <mxCell id="YxrUR9cCDGX0kRUGul5s-7" value="" style="shape=tableRow;horizontal=0;startSize=0;swimlaneHead=0;swimlaneBody=0;strokeColor=inherit;top=0;left=0;bottom=0;right=0;collapsible=0;dropTarget=0;fillColor=none;points=[[0,0.5],[1,0.5]];portConstraint=eastwest;fontSize=16;" vertex="1" parent="YxrUR9cCDGX0kRUGul5s-2">
          <mxGeometry y="79" width="280" height="77" as="geometry" />
        </mxCell>
        <mxCell id="YxrUR9cCDGX0kRUGul5s-8" value="+" style="shape=partialRectangle;html=1;whiteSpace=wrap;connectable=0;strokeColor=inherit;overflow=hidden;fillColor=none;top=0;left=0;bottom=0;right=0;pointerEvents=1;fontSize=16;" vertex="1" parent="YxrUR9cCDGX0kRUGul5s-7">
          <mxGeometry width="140" height="77" as="geometry">
            <mxRectangle width="140" height="77" as="alternateBounds" />
          </mxGeometry>
        </mxCell>
        <mxCell id="YxrUR9cCDGX0kRUGul5s-9" value="000" style="shape=partialRectangle;html=1;whiteSpace=wrap;connectable=0;strokeColor=inherit;overflow=hidden;fillColor=none;top=0;left=0;bottom=0;right=0;pointerEvents=1;fontSize=16;" vertex="1" parent="YxrUR9cCDGX0kRUGul5s-7">
          <mxGeometry x="140" width="140" height="77" as="geometry">
            <mxRectangle width="140" height="77" as="alternateBounds" />
          </mxGeometry>
        </mxCell>
        <mxCell id="YxrUR9cCDGX0kRUGul5s-11" value="" style="shape=tableRow;horizontal=0;startSize=0;swimlaneHead=0;swimlaneBody=0;strokeColor=inherit;top=0;left=0;bottom=0;right=0;collapsible=0;dropTarget=0;fillColor=none;points=[[0,0.5],[1,0.5]];portConstraint=eastwest;fontSize=16;" vertex="1" parent="YxrUR9cCDGX0kRUGul5s-2">
          <mxGeometry y="156" width="280" height="79" as="geometry" />
        </mxCell>
        <mxCell id="YxrUR9cCDGX0kRUGul5s-12" value="-" style="shape=partialRectangle;html=1;whiteSpace=wrap;connectable=0;strokeColor=inherit;overflow=hidden;fillColor=none;top=0;left=0;bottom=0;right=0;pointerEvents=1;fontSize=16;" vertex="1" parent="YxrUR9cCDGX0kRUGul5s-11">
          <mxGeometry width="140" height="79" as="geometry">
            <mxRectangle width="140" height="79" as="alternateBounds" />
          </mxGeometry>
        </mxCell>
        <mxCell id="YxrUR9cCDGX0kRUGul5s-13" value="001" style="shape=partialRectangle;html=1;whiteSpace=wrap;connectable=0;strokeColor=inherit;overflow=hidden;fillColor=none;top=0;left=0;bottom=0;right=0;pointerEvents=1;fontSize=16;" vertex="1" parent="YxrUR9cCDGX0kRUGul5s-11">
          <mxGeometry x="140" width="140" height="79" as="geometry">
            <mxRectangle width="140" height="79" as="alternateBounds" />
          </mxGeometry>
        </mxCell>
        <mxCell id="YxrUR9cCDGX0kRUGul5s-15" style="shape=tableRow;horizontal=0;startSize=0;swimlaneHead=0;swimlaneBody=0;strokeColor=inherit;top=0;left=0;bottom=0;right=0;collapsible=0;dropTarget=0;fillColor=none;points=[[0,0.5],[1,0.5]];portConstraint=eastwest;fontSize=16;" vertex="1" parent="YxrUR9cCDGX0kRUGul5s-2">
          <mxGeometry y="235" width="280" height="79" as="geometry" />
        </mxCell>
        <mxCell id="YxrUR9cCDGX0kRUGul5s-16" value="and" style="shape=partialRectangle;html=1;whiteSpace=wrap;connectable=0;strokeColor=inherit;overflow=hidden;fillColor=none;top=0;left=0;bottom=0;right=0;pointerEvents=1;fontSize=16;" vertex="1" parent="YxrUR9cCDGX0kRUGul5s-15">
          <mxGeometry width="140" height="79" as="geometry">
            <mxRectangle width="140" height="79" as="alternateBounds" />
          </mxGeometry>
        </mxCell>
        <mxCell id="YxrUR9cCDGX0kRUGul5s-17" value="101" style="shape=partialRectangle;html=1;whiteSpace=wrap;connectable=0;strokeColor=inherit;overflow=hidden;fillColor=none;top=0;left=0;bottom=0;right=0;pointerEvents=1;fontSize=16;" vertex="1" parent="YxrUR9cCDGX0kRUGul5s-15">
          <mxGeometry x="140" width="140" height="79" as="geometry">
            <mxRectangle width="140" height="79" as="alternateBounds" />
          </mxGeometry>
        </mxCell>
        <mxCell id="YxrUR9cCDGX0kRUGul5s-18" style="shape=tableRow;horizontal=0;startSize=0;swimlaneHead=0;swimlaneBody=0;strokeColor=inherit;top=0;left=0;bottom=0;right=0;collapsible=0;dropTarget=0;fillColor=none;points=[[0,0.5],[1,0.5]];portConstraint=eastwest;fontSize=16;" vertex="1" parent="YxrUR9cCDGX0kRUGul5s-2">
          <mxGeometry y="314" width="280" height="78" as="geometry" />
        </mxCell>
        <mxCell id="YxrUR9cCDGX0kRUGul5s-19" value="or" style="shape=partialRectangle;html=1;whiteSpace=wrap;connectable=0;strokeColor=inherit;overflow=hidden;fillColor=none;top=0;left=0;bottom=0;right=0;pointerEvents=1;fontSize=16;" vertex="1" parent="YxrUR9cCDGX0kRUGul5s-18">
          <mxGeometry width="140" height="78" as="geometry">
            <mxRectangle width="140" height="78" as="alternateBounds" />
          </mxGeometry>
        </mxCell>
        <mxCell id="YxrUR9cCDGX0kRUGul5s-20" value="110" style="shape=partialRectangle;html=1;whiteSpace=wrap;connectable=0;strokeColor=inherit;overflow=hidden;fillColor=none;top=0;left=0;bottom=0;right=0;pointerEvents=1;fontSize=16;" vertex="1" parent="YxrUR9cCDGX0kRUGul5s-18">
          <mxGeometry x="140" width="140" height="78" as="geometry">
            <mxRectangle width="140" height="78" as="alternateBounds" />
          </mxGeometry>
        </mxCell>
        <mxCell id="YxrUR9cCDGX0kRUGul5s-21" style="shape=tableRow;horizontal=0;startSize=0;swimlaneHead=0;swimlaneBody=0;strokeColor=inherit;top=0;left=0;bottom=0;right=0;collapsible=0;dropTarget=0;fillColor=none;points=[[0,0.5],[1,0.5]];portConstraint=eastwest;fontSize=16;" vertex="1" parent="YxrUR9cCDGX0kRUGul5s-2">
          <mxGeometry y="392" width="280" height="79" as="geometry" />
        </mxCell>
        <mxCell id="YxrUR9cCDGX0kRUGul5s-22" value="&amp;gt;" style="shape=partialRectangle;html=1;whiteSpace=wrap;connectable=0;strokeColor=inherit;overflow=hidden;fillColor=none;top=0;left=0;bottom=0;right=0;pointerEvents=1;fontSize=16;" vertex="1" parent="YxrUR9cCDGX0kRUGul5s-21">
          <mxGeometry width="140" height="79" as="geometry">
            <mxRectangle width="140" height="79" as="alternateBounds" />
          </mxGeometry>
        </mxCell>
        <mxCell id="YxrUR9cCDGX0kRUGul5s-23" value="011" style="shape=partialRectangle;html=1;whiteSpace=wrap;connectable=0;strokeColor=inherit;overflow=hidden;fillColor=none;top=0;left=0;bottom=0;right=0;pointerEvents=1;fontSize=16;" vertex="1" parent="YxrUR9cCDGX0kRUGul5s-21">
          <mxGeometry x="140" width="140" height="79" as="geometry">
            <mxRectangle width="140" height="79" as="alternateBounds" />
          </mxGeometry>
        </mxCell>
        <mxCell id="YxrUR9cCDGX0kRUGul5s-24" style="shape=tableRow;horizontal=0;startSize=0;swimlaneHead=0;swimlaneBody=0;strokeColor=inherit;top=0;left=0;bottom=0;right=0;collapsible=0;dropTarget=0;fillColor=none;points=[[0,0.5],[1,0.5]];portConstraint=eastwest;fontSize=16;" vertex="1" parent="YxrUR9cCDGX0kRUGul5s-2">
          <mxGeometry y="471" width="280" height="79" as="geometry" />
        </mxCell>
        <mxCell id="YxrUR9cCDGX0kRUGul5s-25" value="&amp;lt;&amp;lt;" style="shape=partialRectangle;html=1;whiteSpace=wrap;connectable=0;strokeColor=inherit;overflow=hidden;fillColor=none;top=0;left=0;bottom=0;right=0;pointerEvents=1;fontSize=16;" vertex="1" parent="YxrUR9cCDGX0kRUGul5s-24">
          <mxGeometry width="140" height="79" as="geometry">
            <mxRectangle width="140" height="79" as="alternateBounds" />
          </mxGeometry>
        </mxCell>
        <mxCell id="YxrUR9cCDGX0kRUGul5s-26" value="010" style="shape=partialRectangle;html=1;whiteSpace=wrap;connectable=0;strokeColor=inherit;overflow=hidden;fillColor=none;top=0;left=0;bottom=0;right=0;pointerEvents=1;fontSize=16;" vertex="1" parent="YxrUR9cCDGX0kRUGul5s-24">
          <mxGeometry x="140" width="140" height="79" as="geometry">
            <mxRectangle width="140" height="79" as="alternateBounds" />
          </mxGeometry>
        </mxCell>
        <mxCell id="YxrUR9cCDGX0kRUGul5s-27" style="shape=tableRow;horizontal=0;startSize=0;swimlaneHead=0;swimlaneBody=0;strokeColor=inherit;top=0;left=0;bottom=0;right=0;collapsible=0;dropTarget=0;fillColor=none;points=[[0,0.5],[1,0.5]];portConstraint=eastwest;fontSize=16;" vertex="1" parent="YxrUR9cCDGX0kRUGul5s-2">
          <mxGeometry y="550" width="280" height="79" as="geometry" />
        </mxCell>
        <mxCell id="YxrUR9cCDGX0kRUGul5s-28" value="&amp;gt;&amp;gt;" style="shape=partialRectangle;html=1;whiteSpace=wrap;connectable=0;strokeColor=inherit;overflow=hidden;fillColor=none;top=0;left=0;bottom=0;right=0;pointerEvents=1;fontSize=16;" vertex="1" parent="YxrUR9cCDGX0kRUGul5s-27">
          <mxGeometry width="140" height="79" as="geometry">
            <mxRectangle width="140" height="79" as="alternateBounds" />
          </mxGeometry>
        </mxCell>
        <mxCell id="YxrUR9cCDGX0kRUGul5s-29" value="100" style="shape=partialRectangle;html=1;whiteSpace=wrap;connectable=0;strokeColor=inherit;overflow=hidden;fillColor=none;top=0;left=0;bottom=0;right=0;pointerEvents=1;fontSize=16;" vertex="1" parent="YxrUR9cCDGX0kRUGul5s-27">
          <mxGeometry x="140" width="140" height="79" as="geometry">
            <mxRectangle width="140" height="79" as="alternateBounds" />
          </mxGeometry>
        </mxCell>
        <mxCell id="wuxzXhh-zJa7wfzsDmaH-1" style="shape=tableRow;horizontal=0;startSize=0;swimlaneHead=0;swimlaneBody=0;strokeColor=inherit;top=0;left=0;bottom=0;right=0;collapsible=0;dropTarget=0;fillColor=none;points=[[0,0.5],[1,0.5]];portConstraint=eastwest;fontSize=16;" vertex="1" parent="YxrUR9cCDGX0kRUGul5s-2">
          <mxGeometry y="629" width="280" height="79" as="geometry" />
        </mxCell>
        <mxCell id="wuxzXhh-zJa7wfzsDmaH-2" value="==" style="shape=partialRectangle;html=1;whiteSpace=wrap;connectable=0;strokeColor=inherit;overflow=hidden;fillColor=none;top=0;left=0;bottom=0;right=0;pointerEvents=1;fontSize=16;" vertex="1" parent="wuxzXhh-zJa7wfzsDmaH-1">
          <mxGeometry width="140" height="79" as="geometry">
            <mxRectangle width="140" height="79" as="alternateBounds" />
          </mxGeometry>
        </mxCell>
        <mxCell id="wuxzXhh-zJa7wfzsDmaH-3" value="111" style="shape=partialRectangle;html=1;whiteSpace=wrap;connectable=0;strokeColor=inherit;overflow=hidden;fillColor=none;top=0;left=0;bottom=0;right=0;pointerEvents=1;fontSize=16;" vertex="1" parent="wuxzXhh-zJa7wfzsDmaH-1">
          <mxGeometry x="140" width="140" height="79" as="geometry">
            <mxRectangle width="140" height="79" as="alternateBounds" />
          </mxGeometry>
        </mxCell>
      </root>
    </mxGraphModel>
  </diagram>
  <diagram id="jci4LbwEH7edAKpy4vR_" name="REGFILE">
    <mxGraphModel dx="1254" dy="753" grid="1" gridSize="10" guides="1" tooltips="1" connect="1" arrows="1" fold="1" page="1" pageScale="1" pageWidth="1169" pageHeight="827" math="0" shadow="0">
      <root>
        <mxCell id="0" />
        <mxCell id="1" parent="0" />
        <mxCell id="RZXwSQIK44SttyJiYxUa-2" value="16 x 16-bit internal registers" style="text;html=1;align=center;verticalAlign=middle;resizable=0;points=[];autosize=1;strokeColor=none;fillColor=none;" vertex="1" parent="1">
          <mxGeometry x="85" y="28" width="170" height="30" as="geometry" />
        </mxCell>
        <mxCell id="RZXwSQIK44SttyJiYxUa-3" value="" style="shape=table;startSize=0;container=1;collapsible=0;childLayout=tableLayout;fontSize=16;" vertex="1" parent="1">
          <mxGeometry x="210" y="150" width="225" height="240" as="geometry" />
        </mxCell>
        <mxCell id="RZXwSQIK44SttyJiYxUa-4" value="" style="shape=tableRow;horizontal=0;startSize=0;swimlaneHead=0;swimlaneBody=0;strokeColor=inherit;top=0;left=0;bottom=0;right=0;collapsible=0;dropTarget=0;fillColor=none;points=[[0,0.5],[1,0.5]];portConstraint=eastwest;fontSize=16;" vertex="1" parent="RZXwSQIK44SttyJiYxUa-3">
          <mxGeometry width="225" height="80" as="geometry" />
        </mxCell>
        <mxCell id="RZXwSQIK44SttyJiYxUa-5" value="address" style="shape=partialRectangle;html=1;whiteSpace=wrap;connectable=0;strokeColor=inherit;overflow=hidden;fillColor=none;top=0;left=0;bottom=0;right=0;pointerEvents=1;fontSize=16;" vertex="1" parent="RZXwSQIK44SttyJiYxUa-4">
          <mxGeometry width="75" height="80" as="geometry">
            <mxRectangle width="75" height="80" as="alternateBounds" />
          </mxGeometry>
        </mxCell>
        <mxCell id="RZXwSQIK44SttyJiYxUa-6" value="name" style="shape=partialRectangle;html=1;whiteSpace=wrap;connectable=0;strokeColor=inherit;overflow=hidden;fillColor=none;top=0;left=0;bottom=0;right=0;pointerEvents=1;fontSize=16;" vertex="1" parent="RZXwSQIK44SttyJiYxUa-4">
          <mxGeometry x="75" width="75" height="80" as="geometry">
            <mxRectangle width="75" height="80" as="alternateBounds" />
          </mxGeometry>
        </mxCell>
        <mxCell id="RZXwSQIK44SttyJiYxUa-16" value="des" style="shape=partialRectangle;html=1;whiteSpace=wrap;connectable=0;strokeColor=inherit;overflow=hidden;fillColor=none;top=0;left=0;bottom=0;right=0;pointerEvents=1;fontSize=16;" vertex="1" parent="RZXwSQIK44SttyJiYxUa-4">
          <mxGeometry x="150" width="75" height="80" as="geometry">
            <mxRectangle width="75" height="80" as="alternateBounds" />
          </mxGeometry>
        </mxCell>
        <mxCell id="RZXwSQIK44SttyJiYxUa-8" value="" style="shape=tableRow;horizontal=0;startSize=0;swimlaneHead=0;swimlaneBody=0;strokeColor=inherit;top=0;left=0;bottom=0;right=0;collapsible=0;dropTarget=0;fillColor=none;points=[[0,0.5],[1,0.5]];portConstraint=eastwest;fontSize=16;" vertex="1" parent="RZXwSQIK44SttyJiYxUa-3">
          <mxGeometry y="80" width="225" height="80" as="geometry" />
        </mxCell>
        <mxCell id="RZXwSQIK44SttyJiYxUa-9" value="0x0" style="shape=partialRectangle;html=1;whiteSpace=wrap;connectable=0;strokeColor=inherit;overflow=hidden;fillColor=none;top=0;left=0;bottom=0;right=0;pointerEvents=1;fontSize=16;" vertex="1" parent="RZXwSQIK44SttyJiYxUa-8">
          <mxGeometry width="75" height="80" as="geometry">
            <mxRectangle width="75" height="80" as="alternateBounds" />
          </mxGeometry>
        </mxCell>
        <mxCell id="RZXwSQIK44SttyJiYxUa-10" value="$r0" style="shape=partialRectangle;html=1;whiteSpace=wrap;connectable=0;strokeColor=inherit;overflow=hidden;fillColor=none;top=0;left=0;bottom=0;right=0;pointerEvents=1;fontSize=16;" vertex="1" parent="RZXwSQIK44SttyJiYxUa-8">
          <mxGeometry x="75" width="75" height="80" as="geometry">
            <mxRectangle width="75" height="80" as="alternateBounds" />
          </mxGeometry>
        </mxCell>
        <mxCell id="RZXwSQIK44SttyJiYxUa-17" value="zero address" style="shape=partialRectangle;html=1;whiteSpace=wrap;connectable=0;strokeColor=inherit;overflow=hidden;fillColor=none;top=0;left=0;bottom=0;right=0;pointerEvents=1;fontSize=16;" vertex="1" parent="RZXwSQIK44SttyJiYxUa-8">
          <mxGeometry x="150" width="75" height="80" as="geometry">
            <mxRectangle width="75" height="80" as="alternateBounds" />
          </mxGeometry>
        </mxCell>
        <mxCell id="RZXwSQIK44SttyJiYxUa-12" value="" style="shape=tableRow;horizontal=0;startSize=0;swimlaneHead=0;swimlaneBody=0;strokeColor=inherit;top=0;left=0;bottom=0;right=0;collapsible=0;dropTarget=0;fillColor=none;points=[[0,0.5],[1,0.5]];portConstraint=eastwest;fontSize=16;" vertex="1" parent="RZXwSQIK44SttyJiYxUa-3">
          <mxGeometry y="160" width="225" height="80" as="geometry" />
        </mxCell>
        <mxCell id="RZXwSQIK44SttyJiYxUa-13" value="0xF" style="shape=partialRectangle;html=1;whiteSpace=wrap;connectable=0;strokeColor=inherit;overflow=hidden;fillColor=none;top=0;left=0;bottom=0;right=0;pointerEvents=1;fontSize=16;" vertex="1" parent="RZXwSQIK44SttyJiYxUa-12">
          <mxGeometry width="75" height="80" as="geometry">
            <mxRectangle width="75" height="80" as="alternateBounds" />
          </mxGeometry>
        </mxCell>
        <mxCell id="RZXwSQIK44SttyJiYxUa-14" value="$ra" style="shape=partialRectangle;html=1;whiteSpace=wrap;connectable=0;strokeColor=inherit;overflow=hidden;fillColor=none;top=0;left=0;bottom=0;right=0;pointerEvents=1;fontSize=16;" vertex="1" parent="RZXwSQIK44SttyJiYxUa-12">
          <mxGeometry x="75" width="75" height="80" as="geometry">
            <mxRectangle width="75" height="80" as="alternateBounds" />
          </mxGeometry>
        </mxCell>
        <mxCell id="RZXwSQIK44SttyJiYxUa-18" value="return address" style="shape=partialRectangle;html=1;whiteSpace=wrap;connectable=0;strokeColor=inherit;overflow=hidden;fillColor=none;top=0;left=0;bottom=0;right=0;pointerEvents=1;fontSize=16;" vertex="1" parent="RZXwSQIK44SttyJiYxUa-12">
          <mxGeometry x="150" width="75" height="80" as="geometry">
            <mxRectangle width="75" height="80" as="alternateBounds" />
          </mxGeometry>
        </mxCell>
      </root>
    </mxGraphModel>
  </diagram>
</mxfile>
